<svg width="27" height="27" viewBox="0 0 27 27" fill="none" xmlns="http://www.w3.org/2000/svg">
<rect x="2" y="5" width="23" height="20" rx="2" stroke="white" stroke-width="2"/>
<path d="M2 10H25" stroke="white" stroke-width="2"/>
<path d="M6 5V3C6 2.44772 6.44772 2 7 2H9C9.55228 2 10 2.44772 10 3V5" stroke="white" stroke-width="2" stroke-linecap="round" stroke-linejoin="round"/>
<path d="M17 5V3C17 2.44772 17.4477 2 18 2H20C20.5523 2 21 2.44772 21 3V5" stroke="white" stroke-width="2" stroke-linecap="round" stroke-linejoin="round"/>
<rect x="5" y="13" width="3" height="3" rx="1" fill="white"/>
<rect x="5" y="19" width="3" height="3" rx="1" fill="white"/>
<rect x="12" y="13" width="3" height="3" rx="1" fill="white"/>
<rect x="12" y="19" width="3" height="3" rx="1" fill="white"/>
<rect x="19" y="13" width="3" height="3" rx="1" fill="white"/>
<rect x="19" y="19" width="3" height="3" rx="1" fill="white"/>
</svg>
