<svg width="48" height="48" viewBox="0 0 48 48" fill="none" xmlns="http://www.w3.org/2000/svg">
<rect x="11.5" y="18.5" width="25" height="28" rx="4.5" stroke="#0B1D42" stroke-width="3"/>
<path d="M16.5 13.5V5.5C16.5 3.84315 17.8431 2.5 19.5 2.5H28.5C30.1569 2.5 31.5 3.84315 31.5 5.5V13.5" stroke="#0B1D42" stroke-width="3" stroke-linecap="round"/>
<path d="M20.5 26C20.5 25.1716 19.8284 24.5 19 24.5C18.1716 24.5 17.5 25.1716 17.5 26H20.5ZM17.5 39C17.5 39.8284 18.1716 40.5 19 40.5C19.8284 40.5 20.5 39.8284 20.5 39H17.5ZM17.5 26V39H20.5V26H17.5Z" fill="#DEA7A7"/>
<path d="M30.5 26C30.5 25.1716 29.8284 24.5 29 24.5C28.1716 24.5 27.5 25.1716 27.5 26H30.5ZM27.5 39C27.5 39.8284 28.1716 40.5 29 40.5C29.8284 40.5 30.5 39.8284 30.5 39H27.5ZM27.5 26V32.5H30.5V26H27.5ZM27.5 32.5V39H30.5V32.5H27.5Z" fill="#DEA7A7"/>
</svg>
